<mxfile host="app.diagrams.net" modified="2021-12-03T16:05:47.567Z" agent="5.0 (Windows NT 10.0; Win64; x64) AppleWebKit/537.36 (KHTML, like Gecko) Chrome/96.0.4664.55 Safari/537.36 Edg/96.0.1054.34" etag="-tBUJEC1mtMMehBjyVAN" version="15.8.9" type="github">
  <diagram id="l3p4Nn8vqsSgMRRzXjVc" name="Page-1">
    <mxGraphModel dx="2462" dy="1122" grid="0" gridSize="10" guides="1" tooltips="1" connect="1" arrows="1" fold="1" page="0" pageScale="1" pageWidth="1654" pageHeight="1169" math="0" shadow="0">
      <root>
        <mxCell id="0" />
        <mxCell id="1" parent="0" />
        <mxCell id="-JY_Ss09dYT9bE0t_H_c-8" style="rounded=0;orthogonalLoop=1;jettySize=auto;html=1;exitX=1;exitY=0;exitDx=0;exitDy=0;entryX=0;entryY=0.5;entryDx=0;entryDy=0;" edge="1" parent="1" source="-JY_Ss09dYT9bE0t_H_c-1" target="-JY_Ss09dYT9bE0t_H_c-5">
          <mxGeometry relative="1" as="geometry" />
        </mxCell>
        <mxCell id="-JY_Ss09dYT9bE0t_H_c-10" style="edgeStyle=none;rounded=0;orthogonalLoop=1;jettySize=auto;html=1;exitX=1;exitY=1;exitDx=0;exitDy=0;" edge="1" parent="1" source="-JY_Ss09dYT9bE0t_H_c-1" target="-JY_Ss09dYT9bE0t_H_c-6">
          <mxGeometry relative="1" as="geometry" />
        </mxCell>
        <mxCell id="-JY_Ss09dYT9bE0t_H_c-1" value="Mikey-Sakke" style="ellipse;whiteSpace=wrap;html=1;" vertex="1" parent="1">
          <mxGeometry x="909" y="349" width="120" height="80" as="geometry" />
        </mxCell>
        <mxCell id="-JY_Ss09dYT9bE0t_H_c-2" value="SIP" style="rounded=1;whiteSpace=wrap;html=1;" vertex="1" parent="1">
          <mxGeometry x="654" y="289" width="120" height="60" as="geometry" />
        </mxCell>
        <mxCell id="-JY_Ss09dYT9bE0t_H_c-3" value="SRTP" style="rounded=1;whiteSpace=wrap;html=1;" vertex="1" parent="1">
          <mxGeometry x="695" y="451" width="120" height="60" as="geometry" />
        </mxCell>
        <mxCell id="-JY_Ss09dYT9bE0t_H_c-4" value="Domains" style="ellipse;whiteSpace=wrap;html=1;" vertex="1" parent="1">
          <mxGeometry x="-102" y="511" width="120" height="80" as="geometry" />
        </mxCell>
        <mxCell id="-JY_Ss09dYT9bE0t_H_c-5" value="KMS (offline, or online with HSM and assured diode)" style="whiteSpace=wrap;html=1;aspect=fixed;" vertex="1" parent="1">
          <mxGeometry x="1098" y="251" width="80" height="80" as="geometry" />
        </mxCell>
        <mxCell id="-JY_Ss09dYT9bE0t_H_c-6" value="Key Host (online)" style="whiteSpace=wrap;html=1;aspect=fixed;" vertex="1" parent="1">
          <mxGeometry x="1098" y="445" width="80" height="80" as="geometry" />
        </mxCell>
        <mxCell id="-JY_Ss09dYT9bE0t_H_c-9" value="" style="endArrow=classic;html=1;rounded=0;entryX=0.5;entryY=1;entryDx=0;entryDy=0;exitX=0.5;exitY=0;exitDx=0;exitDy=0;" edge="1" parent="1" source="-JY_Ss09dYT9bE0t_H_c-1" target="-JY_Ss09dYT9bE0t_H_c-13">
          <mxGeometry width="50" height="50" relative="1" as="geometry">
            <mxPoint x="387" y="587" as="sourcePoint" />
            <mxPoint x="437" y="537" as="targetPoint" />
          </mxGeometry>
        </mxCell>
        <mxCell id="-JY_Ss09dYT9bE0t_H_c-11" value="&lt;ul&gt;&lt;li&gt;Who runs/manages the KMS, and where?&lt;/li&gt;&lt;li&gt;Can we use ACME, or similar, for auto-enrollment and key management?&lt;/li&gt;&lt;/ul&gt;" style="shape=note;whiteSpace=wrap;html=1;backgroundOutline=1;darkOpacity=0.05;align=left;fillColor=#d5e8d4;strokeColor=#82b366;" vertex="1" parent="1">
          <mxGeometry x="1203" y="225.5" width="285" height="131" as="geometry" />
        </mxCell>
        <mxCell id="-JY_Ss09dYT9bE0t_H_c-13" value="IDPKC" style="rounded=1;whiteSpace=wrap;html=1;" vertex="1" parent="1">
          <mxGeometry x="876" y="189" width="120" height="60" as="geometry" />
        </mxCell>
        <mxCell id="-JY_Ss09dYT9bE0t_H_c-14" value="" style="endArrow=classic;html=1;rounded=0;exitX=0;exitY=0;exitDx=0;exitDy=0;entryX=1;entryY=0.5;entryDx=0;entryDy=0;" edge="1" parent="1" source="-JY_Ss09dYT9bE0t_H_c-1" target="-JY_Ss09dYT9bE0t_H_c-2">
          <mxGeometry width="50" height="50" relative="1" as="geometry">
            <mxPoint x="387" y="580" as="sourcePoint" />
            <mxPoint x="437" y="530" as="targetPoint" />
          </mxGeometry>
        </mxCell>
        <mxCell id="-JY_Ss09dYT9bE0t_H_c-15" value="" style="endArrow=classic;html=1;rounded=0;exitX=0;exitY=1;exitDx=0;exitDy=0;entryX=1;entryY=0.5;entryDx=0;entryDy=0;" edge="1" parent="1" source="-JY_Ss09dYT9bE0t_H_c-1" target="-JY_Ss09dYT9bE0t_H_c-3">
          <mxGeometry width="50" height="50" relative="1" as="geometry">
            <mxPoint x="934" y="560" as="sourcePoint" />
            <mxPoint x="984" y="510" as="targetPoint" />
          </mxGeometry>
        </mxCell>
        <mxCell id="-JY_Ss09dYT9bE0t_H_c-16" value="&lt;ul&gt;&lt;li&gt;Can be deployed on multiple servers&lt;/li&gt;&lt;/ul&gt;" style="shape=note;whiteSpace=wrap;html=1;backgroundOutline=1;darkOpacity=0.05;fillColor=#fff2cc;strokeColor=#d6b656;align=left;" vertex="1" parent="1">
          <mxGeometry x="1203" y="41" width="285" height="100" as="geometry" />
        </mxCell>
        <mxCell id="-JY_Ss09dYT9bE0t_H_c-18" value="" style="endArrow=none;dashed=1;html=1;rounded=0;entryX=0;entryY=0.5;entryDx=0;entryDy=0;entryPerimeter=0;exitX=0.5;exitY=0;exitDx=0;exitDy=0;" edge="1" parent="1" source="-JY_Ss09dYT9bE0t_H_c-5" target="-JY_Ss09dYT9bE0t_H_c-16">
          <mxGeometry width="50" height="50" relative="1" as="geometry">
            <mxPoint x="470" y="336" as="sourcePoint" />
            <mxPoint x="520" y="286" as="targetPoint" />
          </mxGeometry>
        </mxCell>
        <mxCell id="-JY_Ss09dYT9bE0t_H_c-19" value="" style="endArrow=none;dashed=1;html=1;rounded=0;entryX=0;entryY=0.5;entryDx=0;entryDy=0;entryPerimeter=0;exitX=1;exitY=0.5;exitDx=0;exitDy=0;" edge="1" parent="1" source="-JY_Ss09dYT9bE0t_H_c-5" target="-JY_Ss09dYT9bE0t_H_c-11">
          <mxGeometry width="50" height="50" relative="1" as="geometry">
            <mxPoint x="1360" y="528" as="sourcePoint" />
            <mxPoint x="1410" y="478" as="targetPoint" />
          </mxGeometry>
        </mxCell>
      </root>
    </mxGraphModel>
  </diagram>
</mxfile>
